<svg width="80" height="80" viewBox="0 0 80 80" fill="none" xmlns="http://www.w3.org/2000/svg">
<circle cx="40" cy="40" r="39.5" fill="white" stroke="#01C260"/>
<path d="M49.9932 42.5132L49.9778 42.6417C46.2103 40.7639 45.8163 40.5138 45.3297 41.2436C44.9922 41.7491 44.0088 42.8952 43.7124 43.2345C43.4126 43.5685 43.1145 43.5942 42.6056 43.363C42.0916 43.106 40.4418 42.5663 38.4886 40.8188C36.9673 39.4567 35.9462 37.7863 35.6446 37.2723C35.1426 36.4054 36.1929 36.282 37.1489 34.4728C37.3202 34.113 37.2328 33.8303 37.106 33.5751C36.9775 33.3181 35.9547 30.7996 35.5264 29.7956C35.1152 28.795 34.692 28.9218 34.3751 28.9218C33.3883 28.8362 32.667 28.8499 32.0313 29.5112C29.2661 32.5505 29.9634 35.6858 32.3295 39.0198C36.9793 45.1053 39.4566 46.2258 43.9865 47.7815C45.2098 48.1704 46.3251 48.1156 47.2075 47.9888C48.1909 47.8329 50.2348 46.7535 50.6614 45.5457C51.0983 44.3378 51.0983 43.3355 50.9698 43.1043C50.843 42.873 50.5072 42.7445 49.9932 42.5132Z" fill="#01C260"/>
<path d="M55.1562 23.9098C41.9829 11.1751 20.1816 20.4113 20.173 38.3766C20.173 41.9676 21.1136 45.4696 22.9057 48.562L20 59.1192L30.8535 56.2888C44.3969 63.6045 61.1116 53.8903 61.1184 38.3869C61.1184 32.9456 58.994 27.8246 55.1305 23.9766L55.1562 23.9098ZM57.6953 38.3304C57.685 51.4077 43.3296 59.5749 31.9757 52.9L31.359 52.5334L24.9342 54.2038L26.656 47.9589L26.2466 47.3165C19.1811 36.0689 27.2985 21.369 40.6826 21.369C45.2296 21.369 49.4973 23.1423 52.7114 26.3546C55.9238 29.5396 57.6953 33.8073 57.6953 38.3304Z" fill="#01C260"/>
</svg>
