<svg width="80" height="80" viewBox="0 0 80 80" fill="none" xmlns="http://www.w3.org/2000/svg">
<circle cx="40" cy="40" r="39.5" fill="white" stroke="#FF0000"/>
<path d="M59.8558 31.8106C59.8558 28.196 57.1971 25.2884 53.9119 25.2884C49.462 25.0803 44.9238 25 40.286 25H38.8402C34.2136 25 29.6673 25.0803 25.2175 25.2892C21.9403 25.2892 19.2816 28.2129 19.2816 31.8274C19.0808 34.6861 18.9957 37.5456 19.0005 40.4051C18.9925 43.2646 19.0835 46.1267 19.2736 48.9916C19.2736 52.6061 21.9323 55.5379 25.2094 55.5379C29.8842 55.7547 34.6795 55.8511 39.555 55.8431C44.4387 55.8591 49.2205 55.7574 53.9007 55.5379C57.1859 55.5379 59.8445 52.6061 59.8445 48.9916C60.0373 46.124 60.1257 43.2646 60.1176 40.397C60.1358 37.5376 60.0486 34.6754 59.8558 31.8106ZM35.6273 48.2847V32.5013L47.2741 40.389L35.6273 48.2847Z" fill="#FF0000"/>
</svg>
