<svg width="80" height="80" viewBox="0 0 80 80" fill="none" xmlns="http://www.w3.org/2000/svg">
<circle cx="40" cy="40" r="39.5" fill="white" stroke="#004DAB"/>
<path fill-rule="evenodd" clip-rule="evenodd" d="M48.3721 21.5079L43.5774 21.502C38.1849 21.502 34.7067 25.0768 34.7067 30.6097V34.8073H29.8818C29.4651 34.8073 29.127 35.1427 29.127 35.5618V41.6457C29.127 42.0648 29.4651 42.4002 29.8818 42.4002H34.7067V57.7475C34.7067 58.1666 35.0448 58.502 35.4615 58.502H41.7538C42.1704 58.502 42.5086 58.1666 42.5086 57.7475V42.4002H48.1487C48.5654 42.4002 48.9035 42.0648 48.9035 41.6457V35.5618C48.9035 35.3642 48.825 35.1726 48.6801 35.0289C48.5412 34.8852 48.348 34.8073 48.1487 34.8073H42.5086V31.2505C42.5086 29.5379 42.9132 28.6696 45.1414 28.6696H48.3721C48.7888 28.6696 49.127 28.3343 49.127 27.9151V22.2624C49.127 21.8493 48.7888 21.5079 48.3721 21.5079Z" fill="#004DAB"/>
</svg>
