<svg width="80" height="80" viewBox="0 0 80 80" fill="none" xmlns="http://www.w3.org/2000/svg">
<circle cx="40" cy="40" r="39.5" fill="white" stroke="#D531BD"/>
<path d="M39.686 29.043C34.1057 29.043 29.5879 33.5657 29.5879 39.1411C29.5879 44.7215 34.1106 49.2393 39.686 49.2393C45.2664 49.2393 49.7842 44.7166 49.7842 39.1411C49.7842 33.5607 45.2615 29.043 39.686 29.043ZM39.686 45.6956C36.0636 45.6956 33.1316 42.7619 33.1316 39.1411C33.1316 35.5203 36.0653 32.5867 39.686 32.5867C43.3068 32.5867 46.2405 35.5203 46.2405 39.1411C46.2421 42.7619 43.3085 45.6956 39.686 45.6956Z" fill="#D431BB"/>
<path d="M47.7924 19.5953C44.1716 19.4264 35.2034 19.4346 31.5793 19.5953C28.3947 19.7445 25.5857 20.5136 23.3211 22.7782C19.5363 26.563 20.0201 31.6629 20.0201 39.1422C20.0201 46.797 19.5937 51.7788 23.3211 55.5062C27.1206 59.3041 32.2943 58.8072 39.685 58.8072C47.2677 58.8072 49.8849 58.8121 52.566 57.7741C56.2114 56.3589 58.963 53.1006 59.232 47.248C59.4025 43.6255 59.3927 34.6589 59.232 31.0348C58.9073 24.1262 55.1996 19.9364 47.7924 19.5953ZM53.5237 53.0022C51.0426 55.4832 47.6006 55.2619 39.6375 55.2619C31.4383 55.2619 28.1504 55.3832 25.7513 52.9776C22.9882 50.2276 23.4883 45.8115 23.4883 39.116C23.4883 30.0559 22.5585 23.5309 31.6515 23.0652C33.7406 22.9914 34.3556 22.9668 39.6145 22.9668L39.6883 23.016C48.427 23.016 55.2832 22.101 55.6948 31.1923C55.7883 33.2667 55.8096 33.8898 55.8096 39.1406C55.808 47.2447 55.9621 50.5522 53.5237 53.0022Z" fill="#D431BB"/>
<path d="M50.184 31.0046C51.4872 31.0046 52.5437 29.9481 52.5437 28.6449C52.5437 27.3416 51.4872 26.2852 50.184 26.2852C48.8807 26.2852 47.8242 27.3416 47.8242 28.6449C47.8242 29.9481 48.8807 31.0046 50.184 31.0046Z" fill="#D431BB"/>
</svg>
