<svg width="80" height="80" viewBox="0 0 80 80" fill="none" xmlns="http://www.w3.org/2000/svg">
<circle cx="40" cy="40" r="39.5" fill="white" stroke="#036CC5"/>
<path fill-rule="evenodd" clip-rule="evenodd" d="M57.127 40.7312V53.496H50.2714V41.5886C50.2714 38.5968 49.2816 36.5523 46.7958 36.5523C44.9006 36.5523 43.7758 37.9313 43.2753 39.2623C43.0953 39.736 43.0503 40.4015 43.0503 41.067V53.502H36.1892C36.1892 53.502 36.2791 33.3326 36.1892 31.2401H43.0503V34.3938C43.0391 34.4178 43.0166 34.4418 43.0053 34.4658H43.0503V34.3879C43.9614 32.871 45.5867 30.7065 49.231 30.7065C53.7414 30.7125 57.127 33.8962 57.127 40.7312ZM29.0074 20.502C26.6623 20.502 25.127 22.1627 25.127 24.3452C25.127 26.4796 26.6173 28.1944 28.9175 28.1944H28.9625C31.3526 28.1944 32.8429 26.4856 32.8429 24.3452C32.7979 22.1627 31.3582 20.502 29.0074 20.502ZM25.5319 53.496H32.3874V31.2341H25.5319V53.496Z" fill="#036CC5"/>
</svg>
